<?xml version="1.0" encoding="UTF-8"?>
<svg width="1430px" height="218px" viewBox="0 0 1430 218" version="1.1" xmlns="http://www.w3.org/2000/svg" xmlns:xlink="http://www.w3.org/1999/xlink">
    <!-- Generator: Sketch 42 (36781) - http://www.bohemiancoding.com/sketch -->
    <title>Slice</title>
    <desc>Created with Sketch.</desc>
    <defs></defs>
    <g id="Page-1" stroke="none" stroke-width="1" fill="none" fill-rule="evenodd">
        <path d="M0,202.3 C0,205.3 2.7,208 5.7,208 L28.8,208 C33,208 35.7,206.5 35.7,202.3 L35.7,129.7 C37.8,125.5 45,117.4 57,117.4 C60.3,117.4 64.8,118.9 65.7,119.2 C68.1,120.4 71.1,119.2 72.6,116.5 L83.7,97 C87.3,89.5 74.7,85 60.6,85 C42,85 30.9,97.6 26.7,103.6 L22.5,91.9 C21.6,89.5 19.8,88 17.1,88 L5.7,88 C2.7,88 0,90.4 0,93.7 L0,202.3 Z M89.5919999,147.7 C89.5919999,113.8 117.192,85 151.092,85 C184.992,85 212.592,113.8 212.592,147.7 C212.592,182.2 184.992,211 151.092,211 C117.192,211 89.5919999,182.2 89.5919999,147.7 Z M122.292,147.7 C122.292,164.8 134.892,178.6 151.092,178.6 C166.992,178.6 179.892,164.8 179.892,147.7 C179.892,130.9 166.992,117.4 151.092,117.4 C134.892,117.4 122.292,130.9 122.292,147.7 Z M228.084,169.9 C228.084,148.6 245.484,132.1 276.084,132.1 C288.084,132.1 297.984,135.4 297.984,135.4 C298.284,120.1 293.484,114.7 282.384,114.7 C271.284,114.7 255.684,117.1 248.784,119.2 C244.584,120.4 242.484,117.7 241.884,113.8 L239.184,98.2 C238.284,93.7 240.684,91.6 243.384,90.7 C245.784,89.8 264.984,85 284.184,85 C321.684,85 330.384,104.5 330.384,137.2 L330.384,202.3 C330.384,205.3 327.684,208 324.684,208 L313.884,208 C311.784,208 310.284,207.1 308.784,203.8 L305.184,195.7 C298.284,202 287.184,211 268.584,211 C244.584,211 228.084,195.4 228.084,169.9 Z M261.084,169.9 C261.084,178.9 267.384,185.5 276.684,185.5 C286.284,185.5 295.584,177.4 297.384,173.8 L297.384,157.3 C297.384,157.3 289.284,153.7 280.584,153.7 C268.884,153.7 261.084,160.3 261.084,169.9 Z M357.576,199.9 C363.876,204.7 377.676,211 397.476,211 C427.776,211 445.176,194.2 445.176,174.4 C445.176,151 427.776,141.1 404.676,132.1 C393.576,127.6 388.176,125.8 388.176,120.4 C388.176,116.5 391.176,113.5 398.376,113.5 C409.776,113.5 423.276,119.8 423.276,119.8 C425.676,120.7 428.976,120.4 430.476,117.7 L437.976,102.4 C439.476,99.4 437.976,96.1 435.276,94.3 C428.976,90.1 416.076,85 398.376,85 C367.776,85 354.276,102.1 354.276,120.4 C354.276,138.7 365.076,151 388.176,160 C404.076,166.3 408.276,169.6 408.276,175 C408.276,180.1 404.076,182.5 398.076,182.5 C384.276,182.5 370.776,175.3 370.776,175.3 C368.076,173.8 365.076,174.4 363.876,177.4 L355.776,193.6 C354.576,196 355.776,198.4 357.576,199.9 Z M475.367999,172.3 C475.367999,196.6 485.567999,211 508.667999,211 C523.367999,211 542.867999,204.1 544.367999,203.2 C547.367999,202 548.867999,199 547.667999,196 L541.667999,177.1 C540.767999,174.1 538.367999,172.6 535.067999,173.8 C531.767999,175 525.467999,177.1 520.367999,177.1 C515.567999,177.1 511.067999,175.9 511.067999,167.5 L511.067999,119.5 L537.467999,119.5 C540.767999,119.5 543.167999,116.8 543.167999,113.8 L543.167999,93.7 C543.167999,90.4 540.767999,88 537.467999,88 L511.067999,88 L511.067999,54.4 C511.067999,51.4 508.667999,48.7 505.667999,48.7 L481.067999,49 C478.067999,49 475.367999,51.7 475.367999,54.7 L475.367999,88 L465.167999,88 C462.167999,88 459.767999,90.4 459.767999,93.7 L459.767999,113.8 C459.767999,116.8 462.167999,119.5 465.167999,119.5 L475.367999,119.5 L475.367999,172.3 Z" id="roast" fill="#3B3B3B"></path>
        <path d="M574.5,190.3 C574.5,201.7 583.8,211 595.2,211 C606.9,211 616.2,201.7 616.2,190.3 C616.2,178.6 606.9,169.3 595.2,169.3 C583.8,169.3 574.5,178.6 574.5,190.3 Z M640.33,202.3 C640.33,205.3 643.03,208 646.03,208 L669.13,208 C673.33,208 676.03,206.5 676.03,202.3 L676.03,129.7 C678.13,125.5 685.33,117.4 697.33,117.4 C700.63,117.4 705.13,118.9 706.03,119.2 C708.43,120.4 711.43,119.2 712.93,116.5 L724.03,97 C727.63,89.5 715.03,85 700.93,85 C682.33,85 671.23,97.6 667.03,103.6 L662.83,91.9 C661.93,89.5 660.13,88 657.43,88 L646.03,88 C643.03,88 640.33,90.4 640.33,93.7 L640.33,202.3 Z M725.36,148 C725.36,114.1 750.86,85 786.56,85 C817.46,85 842.66,108.4 842.66,140.8 C842.66,142.9 842.36,146.8 842.06,148.9 C841.76,151.9 839.06,154 836.36,154 L759.56,154 C760.46,166.3 770.96,180.1 788.36,180.1 C797.66,180.1 806.36,176.5 811.76,172.6 C814.76,170.8 817.46,170.2 819.56,172.6 L831.86,186.7 C833.96,188.8 834.56,192.1 831.56,194.5 C821.66,203.8 806.36,211 786.86,211 C750.86,211 725.36,182.5 725.36,148 Z M762.26,133 L807.56,133 C806.66,121.9 797.06,112.6 785.66,112.6 C773.66,112.6 763.76,121.6 762.26,133 Z M899.19,208 C900.09,209.5 901.59,211 904.29,211 L905.79,211 C908.49,211 909.99,209.5 910.89,208 L965.79,95.2 C967.89,91.3 966.09,88 961.59,88 L938.19,88 C934.89,88 932.49,88.3 930.99,91.3 L905.19,147.1 L904.59,147.1 L880.29,91.3 C879.39,89.5 877.89,88 874.89,88 L848.79,88 C844.29,88 842.79,91.3 844.59,95.2 L899.19,208 Z M996.22,45.4 C1007.92,45.4 1017.22,36.1 1017.22,24.7 C1017.22,13.3 1007.92,4 996.22,4 C984.82,4 975.82,13.3 975.82,24.7 C975.82,36.1 984.82,45.4 996.22,45.4 Z M978.52,202.3 C978.52,205.3 981.22,208 984.22,208 L1009.12,208 C1012.12,208 1014.82,205.3 1014.82,202.3 L1014.82,93.7 C1014.82,90.4 1012.12,88 1009.12,88 L984.22,88 C981.22,88 978.52,90.4 978.52,93.7 L978.52,202.3 Z M1034.45,148 C1034.45,114.1 1059.95,85 1095.65,85 C1126.55,85 1151.75,108.4 1151.75,140.8 C1151.75,142.9 1151.45,146.8 1151.15,148.9 C1150.85,151.9 1148.15,154 1145.45,154 L1068.65,154 C1069.55,166.3 1080.05,180.1 1097.45,180.1 C1106.75,180.1 1115.45,176.5 1120.85,172.6 C1123.85,170.8 1126.55,170.2 1128.65,172.6 L1140.95,186.7 C1143.05,188.8 1143.65,192.1 1140.65,194.5 C1130.75,203.8 1115.45,211 1095.95,211 C1059.95,211 1034.45,182.5 1034.45,148 Z M1071.35,133 L1116.65,133 C1115.75,121.9 1106.15,112.6 1094.75,112.6 C1082.75,112.6 1072.85,121.6 1071.35,133 Z M1194.48,207.7 C1195.08,209.5 1196.88,211 1199.58,211 L1201.08,211 C1203.48,211 1204.98,209.8 1205.88,208.3 L1243.38,138.4 L1243.68,138.4 L1281.48,208.3 C1282.38,209.8 1283.88,211 1286.28,211 L1287.48,211 C1290.48,211 1292.28,209.5 1292.88,207.7 L1330.38,94.9 C1331.88,91 1329.18,88 1324.98,88 L1305.48,88 C1302.18,88 1299.78,88.3 1298.58,91.6 L1280.58,145.3 L1280.28,145.3 L1249.98,87.7 C1249.08,86.2 1247.88,85 1245.18,85 L1242.78,85 C1240.08,85 1238.58,86.5 1237.98,87.7 L1207.38,145.3 L1207.08,145.3 L1189.08,91.6 C1188.48,89.5 1185.48,88 1183.68,88 L1162.08,88 C1157.88,88 1155.18,91 1156.98,94.9 L1194.48,207.7 Z M1342.21,199.9 C1348.51,204.7 1362.31,211 1382.11,211 C1412.41,211 1429.81,194.2 1429.81,174.4 C1429.81,151 1412.41,141.1 1389.31,132.1 C1378.21,127.6 1372.81,125.8 1372.81,120.4 C1372.81,116.5 1375.81,113.5 1383.01,113.5 C1394.41,113.5 1407.91,119.8 1407.91,119.8 C1410.31,120.7 1413.61,120.4 1415.11,117.7 L1422.61,102.4 C1424.11,99.4 1422.61,96.1 1419.91,94.3 C1413.61,90.1 1400.71,85 1383.01,85 C1352.41,85 1338.91,102.1 1338.91,120.4 C1338.91,138.7 1349.71,151 1372.81,160 C1388.71,166.3 1392.91,169.6 1392.91,175 C1392.91,180.1 1388.71,182.5 1382.71,182.5 C1368.91,182.5 1355.41,175.3 1355.41,175.3 C1352.71,173.8 1349.71,174.4 1348.51,177.4 L1340.41,193.6 C1339.21,196 1340.41,198.4 1342.21,199.9 Z" id=".reviews" fill="#666363"></path>
    </g>
</svg>